<svg width="800" height="800" fill="#b7314a" viewBox="0 0 512 512" xml:space="preserve" xmlns="http://www.w3.org/2000/svg"><path d="M510.58 250.69c-17.922-30.966-46.627-54.864-79.996-67.02 15.006-32.188 18.407-69.373 9.179-103.93a10.59 10.59 0 0 0-7.501-7.501c-34.556-9.23-71.742-5.828-103.93 9.177-12.156-33.368-36.053-62.073-67.021-79.995a10.596 10.596 0 0 0-10.612 0c-30.967 17.922-54.864 46.627-67.021 79.995-32.189-15.006-69.376-18.406-103.93-9.177a10.592 10.592 0 0 0-7.501 7.501c-9.229 34.557-5.827 71.743 9.179 103.93-33.369 12.156-62.074 36.053-79.996 67.02a10.598 10.598 0 0 0 0 10.613c17.922 30.966 46.627 54.864 79.996 67.02-15.006 32.188-18.407 69.373-9.179 103.93a10.59 10.59 0 0 0 7.501 7.501c12.828 3.426 26.013 5.113 39.176 5.113 22.297-.001 44.511-4.862 64.752-14.297 12.155 33.371 36.054 62.079 67.024 80.002a10.593 10.593 0 0 0 10.612 0c30.97-17.923 54.868-46.631 67.024-80.002 20.241 9.436 42.452 14.297 64.752 14.297 13.162 0 26.351-1.687 39.176-5.113a10.592 10.592 0 0 0 7.501-7.501c9.229-34.556 5.827-71.742-9.179-103.93 33.369-12.156 62.074-36.053 79.996-67.02a10.598 10.598 0 0 0 0-10.613zM420.753 91.25c6.04 27.958 2.712 57.485-9.277 83.287-17.57-10.497-37.91-16.01-58.277-15.735.252-20.393-5.246-40.715-15.736-58.277 25.802-11.988 55.33-15.316 83.29-9.275zm-72.957 202.76c11.851-5.115 22.381-13.119 30.516-23.178 12.9 12.438 21.891 28.743 25.531 46.399-15.045 9.908-32.931 15.075-50.857 14.746 1.359-12.866-.428-25.972-5.19-37.967zm-55.888-58.16a60.32 60.32 0 0 1 24.594-5.24c5.293 0 10.551.689 15.626 2.048l.051.015c13.455 3.608 25.396 11.976 33.492 23.319-8.104 11.36-20.062 19.738-33.543 23.342a60.398 60.398 0 0 1-15.626 2.048 60.321 60.321 0 0 1-24.559-5.218 40.828 40.828 0 0 0 5.287-20.126 40.836 40.836 0 0 0-5.322-20.188zm55.889-17.87c4.763-11.998 6.55-25.104 5.191-37.971 17.922-.327 35.806 4.839 50.857 14.744-3.64 17.656-12.632 33.961-25.531 46.4-8.137-10.057-18.668-18.06-30.517-23.173zm-18.408-5.392a79.523 79.523 0 0 0-31.019 1.049 79.612 79.612 0 0 0 2.095-18.143c0-4.347-.351-8.659-1.041-12.882a60.93 60.93 0 0 1 34.131-4.166 60.994 60.994 0 0 1-4.166 34.142zm2.602-53.576c-12.86-1.36-25.963.428-37.962 5.194-5.113-11.854-13.118-22.386-23.183-30.524 12.437-12.898 28.742-21.889 46.399-25.529 9.907 15.052 15.075 32.937 14.746 50.859zm-75.854 138.12a40.82 40.82 0 0 0 20.026-5.23 60.316 60.316 0 0 1 5.232 24.589c0 5.298-.689 10.555-2.049 15.631-3.602 13.476-11.98 25.435-23.341 33.539-11.363-8.11-19.738-20.073-23.334-33.558a60.26 60.26 0 0 1-2.048-15.611 60.422 60.422 0 0 1 5.283-24.707 40.828 40.828 0 0 0 20.231 5.347zm-19.906-41.092c0-10.976 8.93-19.906 19.906-19.906s19.906 8.93 19.906 19.906-8.93 19.906-19.906 19.906-19.906-8.929-19.906-19.906zm39.903-35.879a40.819 40.819 0 0 0-19.996-5.212 40.823 40.823 0 0 0-20.198 5.328 60.36 60.36 0 0 1-5.316-24.776c0-5.298.689-10.55 2.052-15.626 3.592-13.474 11.967-25.435 23.331-33.545 11.365 8.108 19.745 20.072 23.347 33.573 1.355 5.016 2.042 10.264 2.042 15.596a60.31 60.31 0 0 1-5.262 24.662zm-20.129-197.16c24.043 15.507 42.577 38.743 52.354 65.459-19.846 4.999-38.111 15.479-52.354 30.072-14.242-14.593-32.509-25.074-52.355-30.072 9.777-26.716 28.312-49.95 52.355-65.459zm-61.248 85.155c17.661 3.639 33.968 12.631 46.409 25.533-10.063 8.14-18.066 18.673-23.175 30.521-12.008-4.769-25.12-6.556-37.988-5.191-.378-18.051 4.774-35.765 14.754-50.863zm25.52 167.92a60.293 60.293 0 0 1-24.768 5.312 59.926 59.926 0 0 1-15.625-2.051c-13.475-3.594-25.437-11.972-33.544-23.339 8.099-11.347 20.042-19.716 33.505-23.319l.051-.015a60.38 60.38 0 0 1 15.612-2.048c8.587 0 17.055 1.83 24.808 5.329a40.837 40.837 0 0 0-5.271 20.099 40.83 40.83 0 0 0 5.232 20.032zm-61.249 55.911c-17.922.329-35.81-4.837-50.861-14.743 3.636-17.648 12.628-33.954 25.531-46.4 8.14 10.066 18.673 18.072 30.519 23.18-4.764 11.993-6.55 25.097-5.189 37.963zm5.191-114c-11.851 5.111-22.382 13.113-30.52 23.173-12.904-12.448-21.897-28.755-25.531-46.404 15.147-10.021 32.777-15.143 50.863-14.759-1.368 12.874.418 25.987 5.188 37.99zm14.244-39.529a60.932 60.932 0 0 1 34.141 4.168 79.661 79.661 0 0 0 1.049 31.025 79.515 79.515 0 0 0-31.026-1.052 60.894 60.894 0 0 1-4.164-34.141zM91.257 91.256c27.955-6.04 57.475-2.713 83.274 9.27-10.563 17.584-16.041 37.735-15.736 58.259-20.51-.316-40.623 5.13-58.268 15.743-11.982-25.799-15.309-55.321-9.27-83.272zm-68.246 164.75c15.507-24.044 38.743-42.578 65.46-52.354 4.997 19.839 15.478 38.104 30.077 52.354-14.598 14.25-25.079 32.515-30.077 52.354-26.717-9.777-49.954-28.312-65.46-52.354zm68.246 164.75c-6.04-27.957-2.712-57.485 9.276-83.287 17.563 10.496 37.889 16.007 58.277 15.735-.252 20.393 5.246 40.715 15.736 58.277-25.801 11.987-55.329 15.315-83.289 9.275zm91.37-121.34a79.72 79.72 0 0 0 12.881 1.044c6.139 0 12.23-.713 18.148-2.101a79.505 79.505 0 0 0-1.053 31.02 60.951 60.951 0 0 1-34.14 4.172 60.907 60.907 0 0 1 4.164-34.135zm-2.608 53.569c2.792.296 5.596.45 8.398.45a80.218 80.218 0 0 0 29.572-5.65c5.11 11.852 13.112 22.385 23.173 30.524-12.454 12.911-28.76 21.905-46.398 25.536-9.906-15.051-15.074-32.937-14.745-50.86zm75.986 136.02c-24.042-15.506-42.576-38.742-52.352-65.457 19.831-4.995 38.096-15.475 52.352-30.081 14.256 14.606 32.521 25.087 52.354 30.081-9.777 26.716-28.312 49.949-52.354 65.457zm61.238-85.155c-17.637-3.632-33.94-12.625-46.394-25.534 10.06-8.136 18.065-18.668 23.18-30.52a80.28 80.28 0 0 0 29.57 5.645c2.8 0 5.602-.155 8.393-.449.328 17.929-4.841 35.813-14.749 50.858zm16.31-70.293a60.985 60.985 0 0 1-34.136-4.165 79.647 79.647 0 0 0-1.046-31.019 79.634 79.634 0 0 0 31.018 1.046 61.004 61.004 0 0 1 4.164 34.138zm87.2 87.2c-27.961 6.041-57.487 2.713-83.29-9.276 10.491-17.556 15.989-37.877 15.736-58.276 20.387.254 40.717-5.247 58.276-15.737 11.99 25.803 15.318 55.332 9.278 83.289zm2.787-112.39c-5-19.846-15.479-38.112-30.073-52.355 14.594-14.241 25.072-32.507 30.072-52.352 26.717 9.776 49.952 28.31 65.459 52.352-15.507 24.044-38.74 42.579-65.458 52.355z"/></svg>
